<svg xmlns="http://www.w3.org/2000/svg" width="161.645" height="161.645" viewBox="0 0 161.645 161.645">
  <g id="グループ_271" data-name="グループ 271" transform="translate(199.296 668.129)">
    <path id="パス_3003" data-name="パス 3003" d="M34.348,26.2a39.485,39.485,0,0,0,12.157-1.733,35.122,35.122,0,0,0-2.674-5.757,33.936,33.936,0,0,1-9.483,1.2,30.8,30.8,0,0,1-13.483-2.684A35.87,35.87,0,0,1,23.9,24.962,41.062,41.062,0,0,0,34.348,26.2" transform="translate(-193.234 -663.125)" fill="#637d58"/>
    <path id="パス_3004" data-name="パス 3004" d="M16.737,13.768A36.943,36.943,0,0,0,0,10.219v6.287c9.257,0,13.809,2.642,18.626,5.438,1.149.666,2.333,1.35,3.6,2.013-.83-1.82-1.781-3.466-2.753-5.143-.912-1.572-1.862-3.211-2.739-5.047" transform="translate(-199.296 -665.16)" fill="#242424"/>
    <path id="パス_3005" data-name="パス 3005" d="M49.64,21.835c4.081-2.368,7.981-4.619,14.7-5.254A42.109,42.109,0,0,1,61.52,10.6c-6.791,1.029-11.119,3.528-15.035,5.8-1.088.631-2.166,1.253-3.283,1.839a40.223,40.223,0,0,1,2.62,5.725c1.351-.7,2.606-1.423,3.819-2.127" transform="translate(-186.745 -665.05)" fill="#242424"/>
    <path id="パス_3006" data-name="パス 3006" d="M95.114,26.392a36.739,36.739,0,0,0,18.239-4.3c-.827-1.808-1.772-3.447-2.738-5.113l-.244-.421A30.441,30.441,0,0,1,95.114,20.1a39.548,39.548,0,0,1-5.22-.328,34.1,34.1,0,0,1,2.166,6.515c.976.061,1.984.1,3.055.1" transform="translate(-173.179 -663.32)" fill="#242424"/>
    <path id="パス_3007" data-name="パス 3007" d="M65.944,16.628c7.124.547,11.133,2.873,15.344,5.317a42.209,42.209,0,0,0,11.961,5.2,39.048,39.048,0,0,0-3.757-7.93c-1.782-.821-3.4-1.755-5.047-2.71-5.08-2.946-10.835-6.287-21.784-6.287-.057,0-.108,0-.165,0a55.972,55.972,0,0,0,2.888,5.437c.186.32.373.641.56.968" transform="translate(-181.139 -665.16)" fill="#d47a7c"/>
    <path id="パス_3008" data-name="パス 3008" d="M129.686,10.219A36.986,36.986,0,0,0,110,15.3l.205.356c.933,1.608,1.9,3.282,2.8,5.167a30.741,30.741,0,0,1,16.68-4.321Z" transform="translate(-167.337 -665.16)" fill="#d47a7c"/>
    <path id="パス_3009" data-name="パス 3009" d="M95.539,43.453a40.913,40.913,0,0,1-4.313-.221A41.613,41.613,0,0,1,88.432,49.2a44.529,44.529,0,0,0,7.107.539,36.973,36.973,0,0,0,16.668-3.515,30.692,30.692,0,0,0,3.572-9.137q-.821.467-1.612.927c-4.819,2.8-9.372,5.438-18.629,5.438" transform="translate(-173.604 -657.354)" fill="#d47a7c"/>
    <path id="パス_3010" data-name="パス 3010" d="M49.353,44.66c4.819-2.8,9.371-5.438,18.626-5.438.623,0,1.222.014,1.805.037a33.159,33.159,0,0,0,.862-6.246c-.858-.046-1.738-.079-2.668-.079a37.647,37.647,0,0,0-20.985,5.827,34.483,34.483,0,0,1-2.8,8.694c1.883-.893,3.558-1.864,5.163-2.8" transform="translate(-186.458 -658.561)" fill="#d47a7c"/>
    <path id="パス_3011" data-name="パス 3011" d="M128.58,39.221V32.934a38.613,38.613,0,0,0-13.374,2.142,37,37,0,0,1-1.4,7.445,30.471,30.471,0,0,1,14.769-3.3" transform="translate(-166.231 -658.561)" fill="#242424"/>
    <path id="パス_3012" data-name="パス 3012" d="M79.436,44.463a49.955,49.955,0,0,0,8.368,4.13,44.825,44.825,0,0,0,2.875-5.658,41.607,41.607,0,0,1-8.088-3.91,41.044,41.044,0,0,0-12.869-5.414,39.773,39.773,0,0,1-.847,6.254,35.909,35.909,0,0,1,10.56,4.6" transform="translate(-179.286 -658.364)" fill="#242424"/>
    <path id="パス_3013" data-name="パス 3013" d="M21.783,39.221C16.7,36.274,10.949,32.934,0,32.934v6.287c9.257,0,13.809,2.64,18.627,5.437.869.5,1.76,1.02,2.691,1.528a30.29,30.29,0,0,0,2.394-5.859c-.647-.363-1.285-.733-1.929-1.106" transform="translate(-199.296 -658.561)" fill="#d47a7c"/>
    <path id="パス_3014" data-name="パス 3014" d="M42.246,48.071l.456-.789a46.821,46.821,0,0,0,3.453-6.8,31.808,31.808,0,0,1-11.833,1.987,32.554,32.554,0,0,1-10.941-1.658,36.893,36.893,0,0,1-2.425,5.806,38.613,38.613,0,0,0,13.366,2.14,43.541,43.541,0,0,0,7.924-.684" transform="translate(-193.208 -656.368)" fill="#242424"/>
    <path id="パス_3015" data-name="パス 3015" d="M83.237,62.538c0,.041,0,.079,0,.12a37.11,37.11,0,0,0,.6,6.919,38.764,38.764,0,0,0,13.215,2.083,41.447,41.447,0,0,0,9.892-1.1,42.291,42.291,0,0,1-.649-6.321,34.218,34.218,0,0,1-9.243,1.136,30.7,30.7,0,0,1-13.813-2.834" transform="translate(-175.114 -649.96)" fill="#242424"/>
    <path id="パス_3016" data-name="パス 3016" d="M61.565,55.68a32.154,32.154,0,0,0-.98,6.339c.838-.05,1.7-.084,2.631-.084,9.257,0,13.809,2.642,18.629,5.438.6.346,1.2.7,1.826,1.049-.092-1.185-.142-2.434-.142-3.763,0-1.232.048-2.39.126-3.5a37.319,37.319,0,0,0-20.439-5.513c-.568,0-1.112.015-1.652.032" transform="translate(-181.694 -651.962)" fill="#d47a7c"/>
    <path id="パス_3017" data-name="パス 3017" d="M0,55.649v6.287a30.961,30.961,0,0,1,13.192,2.55,44.765,44.765,0,0,1,.485-6.582A38.386,38.386,0,0,0,0,55.649" transform="translate(-199.296 -651.961)" fill="#242424"/>
    <path id="パス_3018" data-name="パス 3018" d="M106.363,70.491a62.865,62.865,0,0,0,5.871-3.117c4.82-2.8,9.372-5.438,18.63-5.438V55.649c-10.95,0-16.707,3.34-21.785,6.287-1.032.6-2.055,1.189-3.111,1.75-.006.323-.018.639-.018.973a38.693,38.693,0,0,0,.414,5.832" transform="translate(-168.515 -651.961)" fill="#d47a7c"/>
    <path id="パス_3019" data-name="パス 3019" d="M38.989,72.424a40.441,40.441,0,0,1-.794-6.25c-.7.035-1.412.058-2.171.058-9.256,0-13.807-2.642-18.626-5.437-.69-.4-1.4-.809-2.123-1.216-.116,1.218-.185,2.518-.185,3.939,0,1.163.041,2.251.12,3.274a37.543,37.543,0,0,0,20.814,5.727c1.039,0,2.016-.039,2.964-.1" transform="translate(-194.912 -650.82)" fill="#d47a7c"/>
    <path id="パス_3020" data-name="パス 3020" d="M60.857,62.828a41.689,41.689,0,0,1,.716-6.6,40.455,40.455,0,0,0-13.529,5.542,36.462,36.462,0,0,1-10.211,4.517,33.8,33.8,0,0,0,.8,6.264A41.388,41.388,0,0,0,51.2,67.206a37.468,37.468,0,0,1,9.657-4.377" transform="translate(-188.304 -651.793)" fill="#242424"/>
    <path id="パス_3021" data-name="パス 3021" d="M129.007,84.65V78.363a36.964,36.964,0,0,0-16.668,3.515,34.762,34.762,0,0,1,2.185,5.931,30.5,30.5,0,0,1,14.484-3.159" transform="translate(-166.658 -645.362)" fill="#242424"/>
    <path id="パス_3022" data-name="パス 3022" d="M64.188,78.462c-8.732.625-13.783,3.545-18.289,6.161l-.683.395a34.63,34.63,0,0,1,1.622,6.308c.76-.422,1.5-.848,2.216-1.266,4.8-2.785,9.336-5.414,18.514-5.436-.794-1.689-1.688-3.237-2.6-4.81q-.387-.666-.779-1.352" transform="translate(-186.16 -645.333)" fill="#d47a7c"/>
    <path id="パス_3023" data-name="パス 3023" d="M91.71,88.522a41.232,41.232,0,0,1,.742,6.338c.689.03,1.4.046,2.135.046a37.2,37.2,0,0,0,20.233-5.394,27.886,27.886,0,0,0-2.022-6.089c-4.667,2.7-9.221,5.2-18.211,5.2-1.017,0-1.968-.037-2.877-.1" transform="translate(-172.652 -643.892)" fill="#d47a7c"/>
    <path id="パス_3024" data-name="パス 3024" d="M83.56,84.618c-4.461-2.589-9.448-5.48-18.016-6.144A42.123,42.123,0,0,1,68.7,85.22c4.961.936,8.268,2.844,11.7,4.837a40.683,40.683,0,0,0,13.312,5.5,31.262,31.262,0,0,0-1.143-6.739,38.939,38.939,0,0,1-9.013-4.2" transform="translate(-180.254 -645.33)" fill="#242424"/>
    <path id="パス_3025" data-name="パス 3025" d="M47.228,92a29.542,29.542,0,0,0-1.31-6.229,31.462,31.462,0,0,1-12.287,2.168,33.119,33.119,0,0,1-10.3-1.448,39.1,39.1,0,0,1,.986,6.77,42.1,42.1,0,0,0,9.31.965A38.4,38.4,0,0,0,47.228,92" transform="translate(-192.517 -643.211)" fill="#242424"/>
    <path id="パス_3026" data-name="パス 3026" d="M21.783,84.65C16.7,81.7,10.949,78.363,0,78.363V84.65c9.257,0,13.809,2.64,18.627,5.437a61.956,61.956,0,0,0,5.958,3.158,28.324,28.324,0,0,0-2.4-8.364c-.133-.076-.267-.152-.4-.231" transform="translate(-199.296 -645.362)" fill="#d47a7c"/>
    <path id="パス_3027" data-name="パス 3027" d="M69.091,101.078c-10.948,0-16.7,3.34-21.782,6.287-.678.394-1.351.782-2.033,1.163-.887,1.867-1.851,3.53-2.776,5.123-.739,1.274-1.465,2.531-2.136,3.857a45.173,45.173,0,0,0,10.1-4.705c4.647-2.7,9.057-5.242,17.663-5.422a30.367,30.367,0,0,0,2.551-6.273c-.52-.017-1.043-.031-1.589-.031" transform="translate(-187.569 -638.763)" fill="#242424"/>
    <path id="パス_3028" data-name="パス 3028" d="M21.363,107.123c-4.979-2.886-10.714-6.045-21.363-6.045v6.286c9.029,0,13.582,2.515,18.273,5.234.4-.72.807-1.418,1.2-2.1.649-1.118,1.287-2.222,1.888-3.373" transform="translate(-199.296 -638.763)" fill="#242424"/>
    <path id="パス_3029" data-name="パス 3029" d="M88.151,109.926c-1.787-.821-3.41-1.758-5.059-2.714-3.687-2.14-7.743-4.481-13.874-5.606a33.893,33.893,0,0,1-2.069,6.02c5.579.849,9.11,2.89,12.788,5.024,1.616.937,3.3,1.913,5.2,2.809.887-1.865,1.849-3.524,2.773-5.117.083-.139.161-.277.243-.417" transform="translate(-179.787 -638.61)" fill="#d47a7c"/>
    <path id="パス_3030" data-name="パス 3030" d="M35.053,110.771a30.8,30.8,0,0,1-13.513-2.7c-.654,1.247-1.328,2.416-1.985,3.546-.377.649-.75,1.3-1.116,1.947a36.986,36.986,0,0,0,16.614,3.491c1.509,0,2.911-.068,4.236-.186a43.1,43.1,0,0,1,3.219-6.8,36.448,36.448,0,0,1-7.454.7" transform="translate(-193.939 -636.73)" fill="#d47a7c"/>
    <path id="パス_3031" data-name="パス 3031" d="M112.979,106.832a30.707,30.707,0,0,1-16.641,4.3,36.492,36.492,0,0,1-7.482-.7c-.3.527-.6,1.044-.893,1.554-.792,1.364-1.569,2.71-2.279,4.145a40.825,40.825,0,0,0,10.655,1.293,39.726,39.726,0,0,0,11.924-1.657,56.084,56.084,0,0,1,3.576-6.938c.386-.665.768-1.325,1.141-1.993" transform="translate(-174.403 -637.091)" fill="#242424"/>
    <path id="パス_3032" data-name="パス 3032" d="M110.939,112.8c4.82-2.8,9.372-5.438,18.63-5.438v-6.287a37.679,37.679,0,0,0-14.845,2.711,43.743,43.743,0,0,1-4.319,9.324l.534-.31" transform="translate(-167.22 -638.763)" fill="#d47a7c"/>
    <path id="パス_3033" data-name="パス 3033" d="M21.835,49.647c.7-1.214,1.431-2.47,2.129-3.824a40.016,40.016,0,0,1-5.725-2.62c-.587,1.12-1.209,2.2-1.842,3.288-2.273,3.914-4.771,8.243-5.8,15.029a42.09,42.09,0,0,1,5.983,2.817c.638-6.712,2.887-10.612,5.254-14.691" transform="translate(-196.217 -655.577)" fill="#d1a991"/>
    <path id="パス_3034" data-name="パス 3034" d="M26.2,34.352a41.065,41.065,0,0,0-1.235-10.447,35.8,35.8,0,0,1-7.737-3.04,30.818,30.818,0,0,1,2.686,13.487,33.981,33.981,0,0,1-1.2,9.482,35.122,35.122,0,0,0,5.757,2.674A39.525,39.525,0,0,0,26.2,34.352" transform="translate(-194.292 -662.067)" fill="#637d58"/>
    <path id="パス_3035" data-name="パス 3035" d="M21.944,81.3c-2.446-4.214-4.772-8.223-5.318-15.352-.327-.187-.648-.374-.968-.56A55.66,55.66,0,0,0,10.223,62.5c0,.058,0,.114,0,.173,0,10.948,3.34,16.7,6.287,21.782.954,1.644,1.887,3.261,2.706,5.04a38.961,38.961,0,0,0,7.932,3.758,42.17,42.17,0,0,0-5.2-11.953" transform="translate(-196.327 -649.972)" fill="#637d58"/>
    <path id="パス_3036" data-name="パス 3036" d="M22.088,113.355a36.735,36.735,0,0,0,4.3-18.236c0-1.072-.041-2.082-.1-3.059A34.19,34.19,0,0,1,19.775,89.9a39.355,39.355,0,0,1,.329,5.223,30.434,30.434,0,0,1-3.55,15.254c.139.08.281.161.419.243,1.666.967,3.305,1.913,5.114,2.74" transform="translate(-194.487 -642.012)" fill="#d1a991"/>
    <path id="パス_3037" data-name="パス 3037" d="M23.957,22.229c-.662-1.267-1.347-2.453-2.012-3.6C19.148,13.81,16.506,9.257,16.506,0H10.219a36.962,36.962,0,0,0,3.548,16.737c1.836.876,3.474,1.826,5.046,2.739,1.676.973,3.324,1.924,5.144,2.754" transform="translate(-196.327 -668.129)" fill="#d1a991"/>
    <path id="パス_3038" data-name="パス 3038" d="M15.3,110a36.973,36.973,0,0,0-5.085,19.681h6.286a30.724,30.724,0,0,1,4.322-16.679c-1.885-.893-3.562-1.864-5.17-2.8L15.3,110" transform="translate(-196.327 -636.169)" fill="#637d58"/>
    <path id="パス_3039" data-name="パス 3039" d="M23.158,18.461c-1.82-.83-3.468-1.781-5.144-2.754-1.572-.912-3.21-1.862-5.046-2.738.878,1.836,1.827,3.475,2.74,5.047.972,1.675,1.923,3.323,2.753,5.143A35.869,35.869,0,0,0,26.2,26.2a35.869,35.869,0,0,0-3.039-7.737" transform="translate(-195.528 -664.361)" fill="#a3958b"/>
    <path id="パス_3040" data-name="パス 3040" d="M24.67,41.337a35.122,35.122,0,0,1-5.757-2.674,30.3,30.3,0,0,1-2.394,5.86,40.033,40.033,0,0,0,5.726,2.618,36.754,36.754,0,0,0,2.425-5.8" transform="translate(-194.497 -656.896)" fill="#a3958b"/>
    <path id="パス_3041" data-name="パス 3041" d="M16.626,67.426c-.079-1.023-.12-2.11-.12-3.273,0-1.422.068-2.722.185-3.94A42.233,42.233,0,0,0,10.707,57.4a44.57,44.57,0,0,0-.485,6.58,56.232,56.232,0,0,1,5.436,2.888c.319.187.641.372.968.56" transform="translate(-196.326 -651.453)" fill="#a3958b"/>
    <path id="パス_3042" data-name="パス 3042" d="M25.121,87.172a38.961,38.961,0,0,1-7.932-3.758,28.324,28.324,0,0,1,2.4,8.364,34.1,34.1,0,0,0,6.515,2.166,39.116,39.116,0,0,0-.986-6.771" transform="translate(-194.302 -643.895)" fill="#a3958b"/>
    <path id="パス_3043" data-name="パス 3043" d="M22.784,108.745c-1.809-.827-3.448-1.773-5.114-2.74-.138-.081-.28-.163-.419-.243-.6,1.15-1.239,2.256-1.888,3.373-.4.684-.8,1.382-1.2,2.1l.355.205c1.607.933,3.283,1.9,5.17,2.8.365-.653.738-1.3,1.116-1.949.656-1.131,1.329-2.3,1.984-3.546" transform="translate(-195.182 -637.402)" fill="#a3958b"/>
    <path id="パス_3044" data-name="パス 3044" d="M32.934,128.58H39.22a30.455,30.455,0,0,1,3.3-14.77,36.912,36.912,0,0,1-7.445,1.4,38.592,38.592,0,0,0-2.144,13.375" transform="translate(-189.728 -635.064)" fill="#d1a991"/>
    <path id="パス_3045" data-name="パス 3045" d="M44.464,79.443a35.947,35.947,0,0,1-4.6-10.568,39.9,39.9,0,0,1-6.254.848A41.042,41.042,0,0,0,39.026,82.6a41.551,41.551,0,0,1,3.906,8.079A44.8,44.8,0,0,0,48.588,87.8a50.1,50.1,0,0,0-4.125-8.359" transform="translate(-189.532 -648.119)" fill="#d1a991"/>
    <path id="パス_3046" data-name="パス 3046" d="M44.66,18.629c-2.8-4.82-5.438-9.372-5.438-18.629H32.934c0,10.949,3.34,16.706,6.287,21.784.373.643.743,1.281,1.1,1.927a30.224,30.224,0,0,0,5.859-2.4c-.507-.929-1.021-1.82-1.524-2.687" transform="translate(-189.728 -668.129)" fill="#637d58"/>
    <path id="パス_3047" data-name="パス 3047" d="M49.2,88.43a41.736,41.736,0,0,1-5.967,2.8,41.015,41.015,0,0,1,.221,4.318c0,9.257-2.642,13.809-5.438,18.627-.3.527-.614,1.062-.924,1.608a30.715,30.715,0,0,0,9.138-3.576,36.976,36.976,0,0,0,3.51-16.659A44.452,44.452,0,0,0,49.2,88.43" transform="translate(-188.52 -642.438)" fill="#637d58"/>
    <path id="パス_3048" data-name="パス 3048" d="M39.221,67.99c0-9.257,2.64-13.81,5.437-18.629.934-1.609,1.906-3.288,2.8-5.176a34.478,34.478,0,0,1-8.694,2.808,37.667,37.667,0,0,0-5.831,21c0,.925.031,1.8.077,2.656a33.04,33.04,0,0,0,6.245-.862c-.022-.579-.035-1.174-.035-1.794" transform="translate(-189.728 -655.292)" fill="#637d58"/>
    <path id="パス_3049" data-name="パス 3049" d="M40.482,46.152a47.026,47.026,0,0,0,6.793-3.45l.8-.461a43.58,43.58,0,0,0,.681-7.915,38.627,38.627,0,0,0-2.141-13.374,36.8,36.8,0,0,1-5.8,2.427,32.546,32.546,0,0,1,1.66,10.946,31.81,31.81,0,0,1-1.985,11.825" transform="translate(-187.535 -662.042)" fill="#d1a991"/>
    <path id="パス_3050" data-name="パス 3050" d="M47.141,22.241a40.138,40.138,0,0,0-2.62-5.723,30.241,30.241,0,0,1-5.859,2.393,35.221,35.221,0,0,1,2.674,5.757,36.511,36.511,0,0,0,5.8-2.426" transform="translate(-188.064 -663.33)" fill="#a3958b"/>
    <path id="パス_3051" data-name="パス 3051" d="M48.952,37.449l-.8.461a46.9,46.9,0,0,1-6.793,3.45,46.771,46.771,0,0,1-3.453,6.8l-.456.789a34.466,34.466,0,0,0,8.693-2.809,34.419,34.419,0,0,0,2.806-8.693" transform="translate(-188.415 -657.249)" fill="#a3958b"/>
    <path id="パス_3052" data-name="パス 3052" d="M39.24,64.022a33.055,33.055,0,0,1-6.246.862,40.441,40.441,0,0,0,.794,6.25,39.9,39.9,0,0,0,6.254-.848,33.582,33.582,0,0,1-.8-6.264" transform="translate(-189.71 -649.529)" fill="#a3958b"/>
    <path id="パス_3053" data-name="パス 3053" d="M40.834,86.416a29.542,29.542,0,0,1,1.31,6.229,41.67,41.67,0,0,0,5.967-2.8,34.606,34.606,0,0,0-1.621-6.308,44.972,44.972,0,0,1-5.656,2.874" transform="translate(-187.433 -643.858)" fill="#a3958b"/>
    <path id="パス_3054" data-name="パス 3054" d="M46.953,106.851a30.715,30.715,0,0,1-9.138,3.576,42.988,42.988,0,0,0-3.22,6.8,36.979,36.979,0,0,0,7.445-1.4c.672-1.327,1.4-2.584,2.137-3.857.925-1.594,1.888-3.256,2.776-5.123" transform="translate(-189.245 -637.086)" fill="#a3958b"/>
    <path id="パス_3055" data-name="パス 3055" d="M61.935,63.225c0-.93.034-1.8.084-2.64a32.07,32.07,0,0,0-6.339.977c-.017.543-.031,1.092-.031,1.663a37.3,37.3,0,0,0,5.508,20.429c1.106-.079,2.262-.126,3.493-.126,1.331,0,2.582.052,3.768.143-.35-.621-.7-1.225-1.045-1.82-2.8-4.819-5.438-9.371-5.438-18.626" transform="translate(-183.128 -650.527)" fill="#637d58"/>
    <path id="パス_3056" data-name="パス 3056" d="M56.229,61.57a41.715,41.715,0,0,1,6.6-.715A37.536,37.536,0,0,1,67.2,51.206,41.381,41.381,0,0,0,72.55,38.638a33.682,33.682,0,0,0-6.263-.8,36.446,36.446,0,0,1-4.519,10.216,40.516,40.516,0,0,0-5.539,13.52" transform="translate(-182.96 -657.137)" fill="#d1a991"/>
    <path id="パス_3057" data-name="パス 3057" d="M61.935,0H55.649A38.387,38.387,0,0,0,57.9,13.676a44.6,44.6,0,0,1,6.582-.484A30.965,30.965,0,0,1,61.935,0" transform="translate(-183.128 -668.129)" fill="#d1a991"/>
    <path id="パス_3058" data-name="パス 3058" d="M66.233,36.03c0,.756-.023,1.47-.058,2.167a40.4,40.4,0,0,1,6.249.795c.057-.949.1-1.924.1-2.962a37.531,37.531,0,0,0-5.727-20.816c-1.026-.08-2.118-.121-3.283-.121-1.418,0-2.714.068-3.93.183.407.728.814,1.434,1.216,2.126,2.8,4.819,5.438,9.372,5.438,18.629" transform="translate(-181.987 -663.744)" fill="#637d58"/>
    <path id="パス_3059" data-name="パス 3059" d="M63.686,105.967c-.561,1.058-1.151,2.08-1.751,3.114-2.946,5.078-6.286,10.834-6.286,21.783h6.286c0-9.257,2.642-13.809,5.438-18.627a62.889,62.889,0,0,0,3.118-5.872,38.668,38.668,0,0,0-5.842-.414c-.33,0-.643.01-.963.017" transform="translate(-183.128 -637.348)" fill="#637d58"/>
    <path id="パス_3060" data-name="パス 3060" d="M69.576,83.836a37.069,37.069,0,0,0-6.926-.6l-.114,0a30.668,30.668,0,0,1,2.837,13.815,34.188,34.188,0,0,1-1.136,9.239,42.254,42.254,0,0,1,6.321.652,41.516,41.516,0,0,0,1.1-9.891,38.766,38.766,0,0,0-2.083-13.216" transform="translate(-181.128 -643.947)" fill="#d1a991"/>
    <path id="パス_3061" data-name="パス 3061" d="M64.143,16.506c1.167,0,2.257.043,3.283.121-.187-.327-.374-.648-.56-.968a56.12,56.12,0,0,1-2.888-5.437,44.612,44.612,0,0,0-6.582.484,42.091,42.091,0,0,0,2.817,5.983c1.216-.115,2.511-.183,3.93-.183" transform="translate(-182.621 -665.159)" fill="#a3958b"/>
    <path id="パス_3062" data-name="パス 3062" d="M70.285,40.044a39.918,39.918,0,0,0,.848-6.254,40.436,40.436,0,0,0-6.249-.795,33.055,33.055,0,0,1-.862,6.246,33.683,33.683,0,0,1,6.263.8" transform="translate(-180.696 -658.543)" fill="#a3958b"/>
    <path id="パス_3063" data-name="パス 3063" d="M55.674,62.989a32.055,32.055,0,0,1,6.339-.977,32.049,32.049,0,0,1,.978-6.339,41.564,41.564,0,0,0-6.6.715,41.69,41.69,0,0,0-.716,6.6" transform="translate(-183.121 -651.954)" fill="#a3958b"/>
    <path id="パス_3064" data-name="パス 3064" d="M63.41,78.363c-1.231,0-2.387.048-3.492.126.261.457.521.909.778,1.352.914,1.573,1.808,3.12,2.6,4.81h.112a37.059,37.059,0,0,1,6.926.6,42.124,42.124,0,0,0-3.158-6.746c-1.186-.092-2.438-.143-3.768-.143" transform="translate(-181.888 -645.362)" fill="#a3958b"/>
    <path id="パス_3065" data-name="パス 3065" d="M64.43,101.1a30.279,30.279,0,0,1-2.553,6.275c.32-.006.632-.018.964-.018a38.625,38.625,0,0,1,5.841.416,34.22,34.22,0,0,0,2.069-6.022,42.112,42.112,0,0,0-6.321-.65" transform="translate(-181.319 -638.756)" fill="#a3958b"/>
    <path id="パス_3066" data-name="パス 3066" d="M94.859,92.452a41.083,41.083,0,0,1-6.338-.741c.061.911.1,1.862.1,2.88,0,8.989-2.492,13.54-5.2,18.209a27.945,27.945,0,0,0,6.09,2.02,37.208,37.208,0,0,0,5.393-20.229c0-.738-.017-1.448-.046-2.14" transform="translate(-175.06 -641.484)" fill="#637d58"/>
    <path id="パス_3067" data-name="パス 3067" d="M78.364,129.007h6.285a30.5,30.5,0,0,1,3.159-14.482,34.611,34.611,0,0,1-5.93-2.184,36.962,36.962,0,0,0-3.514,16.666" transform="translate(-176.529 -635.491)" fill="#d1a991"/>
    <path id="パス_3068" data-name="パス 3068" d="M84.618,83.565a38.934,38.934,0,0,1,4.2,9.007,31.211,31.211,0,0,0,6.739,1.143,40.646,40.646,0,0,0-5.5-13.3c-1.993-3.437-3.9-6.744-4.838-11.709a42.091,42.091,0,0,1-6.743-3.154c.665,8.569,3.555,13.557,6.144,18.017" transform="translate(-176.497 -649.085)" fill="#d1a991"/>
    <path id="パス_3069" data-name="パス 3069" d="M84.622,45.906c-2.616,4.507-5.535,9.556-6.16,18.287.454.259.9.517,1.343.774,1.576.914,3.126,1.809,4.818,2.6.023-9.174,2.652-13.711,5.436-18.509.419-.721.845-1.46,1.27-2.222a34.625,34.625,0,0,1-6.309-1.62c-.133.228-.265.457-.4.687" transform="translate(-176.501 -654.992)" fill="#637d58"/>
    <path id="パス_3070" data-name="パス 3070" d="M90.088,18.629C87.292,13.809,84.65,9.257,84.65,0H78.364c0,10.949,3.34,16.706,6.287,21.784l.231.4a28.319,28.319,0,0,0,8.363,2.4,62.348,62.348,0,0,0-3.157-5.956" transform="translate(-176.529 -668.129)" fill="#637d58"/>
    <path id="パス_3071" data-name="パス 3071" d="M85.77,45.92A29.469,29.469,0,0,0,92,47.228a38.426,38.426,0,0,0,2.224-13.593,42.069,42.069,0,0,0-.965-9.314,39,39,0,0,1-6.77-.985,33.126,33.126,0,0,1,1.449,10.3A31.486,31.486,0,0,1,85.77,45.92" transform="translate(-174.377 -661.349)" fill="#d1a991"/>
    <path id="パス_3072" data-name="パス 3072" d="M93.942,26.106a34.1,34.1,0,0,0-2.166-6.515,28.335,28.335,0,0,1-8.361-2.4,39.048,39.048,0,0,1,3.757,7.93,39.126,39.126,0,0,0,6.77.985" transform="translate(-175.062 -663.134)" fill="#a3958b"/>
    <path id="パス_3073" data-name="パス 3073" d="M83.543,46.493a34.625,34.625,0,0,0,6.309,1.62,41.613,41.613,0,0,0,2.794-5.969,29.546,29.546,0,0,1-6.229-1.309,44.82,44.82,0,0,1-2.874,5.658" transform="translate(-175.024 -656.265)" fill="#a3958b"/>
    <path id="パス_3074" data-name="パス 3074" d="M78.491,59.921c-.079,1.107-.128,2.266-.128,3.5,0,1.329.052,2.578.143,3.763a42.108,42.108,0,0,0,6.744,3.155,37.11,37.11,0,0,1-.6-6.919c0-.041,0-.079,0-.12-1.692-.795-3.242-1.691-4.816-2.6-.441-.256-.89-.515-1.345-.774" transform="translate(-176.529 -650.72)" fill="#a3958b"/>
    <path id="パス_3075" data-name="パス 3075" d="M87.631,93.228a41.063,41.063,0,0,0,6.338.741,41.055,41.055,0,0,0-.742-6.338,31.28,31.28,0,0,1-6.739-1.142,31.29,31.29,0,0,1,1.143,6.739" transform="translate(-174.169 -643.001)" fill="#a3958b"/>
    <path id="パス_3076" data-name="パス 3076" d="M90.191,110.071a27.832,27.832,0,0,1-6.09-2.018c-.08.139-.16.277-.241.417-.924,1.594-1.887,3.253-2.773,5.118a34.928,34.928,0,0,0,5.933,2.184c.71-1.435,1.487-2.781,2.279-4.145.294-.508.594-1.027.893-1.555" transform="translate(-175.738 -636.737)" fill="#a3958b"/>
    <path id="パス_3077" data-name="パス 3077" d="M108.533,45.273c-.382.684-.773,1.362-1.168,2.043-2.948,5.078-6.287,10.835-6.287,21.784,0,.542.014,1.061.03,1.578a30.351,30.351,0,0,0,6.275-2.553c.181-8.6,2.726-13.01,5.42-17.654a45.17,45.17,0,0,0,4.708-10.109c-1.329.671-2.586,1.4-3.861,2.138-1.593.924-3.251,1.885-5.116,2.772" transform="translate(-169.93 -656.402)" fill="#d1a991"/>
    <path id="パス_3078" data-name="パス 3078" d="M101.078,129.57h6.286c0-9.256,2.642-13.807,5.438-18.627l.312-.539a43.725,43.725,0,0,1-9.325,4.322,37.693,37.693,0,0,0-2.711,14.845" transform="translate(-169.93 -636.054)" fill="#637d58"/>
    <path id="パス_3079" data-name="パス 3079" d="M112.6,18.273c-2.719-4.691-5.232-9.244-5.232-18.273h-6.287c0,10.649,3.158,16.383,6.042,21.363,1.151-.6,2.256-1.239,3.373-1.888.684-.4,1.382-.8,2.1-1.2" transform="translate(-169.93 -668.129)" fill="#d1a991"/>
    <path id="パス_3080" data-name="パス 3080" d="M108.073,21.54a30.815,30.815,0,0,1,2.7,13.517,36.428,36.428,0,0,1-.7,7.449,43.123,43.123,0,0,1,6.8-3.219c.117-1.322.186-2.723.186-4.23a36.968,36.968,0,0,0-3.491-16.617c-.652.365-1.3.739-1.95,1.116-1.13.656-2.3,1.331-3.544,1.984" transform="translate(-167.898 -662.772)" fill="#637d58"/>
    <path id="パス_3081" data-name="パス 3081" d="M110.425,88.855a36.438,36.438,0,0,1,.706,7.488,30.709,30.709,0,0,1-4.3,16.634c.665-.373,1.324-.754,1.987-1.138a55.858,55.858,0,0,1,6.94-3.576,39.748,39.748,0,0,0,1.656-11.919,40.8,40.8,0,0,0-1.3-10.66c-1.434.711-2.781,1.488-4.145,2.279q-.763.443-1.553.893" transform="translate(-168.258 -643.236)" fill="#d1a991"/>
    <path id="パス_3082" data-name="パス 3082" d="M107.212,83.1c.956,1.647,1.891,3.269,2.711,5.051l.417-.241c1.593-.924,3.252-1.888,5.116-2.773-.9-1.9-1.87-3.577-2.807-5.19-2.136-3.682-4.176-7.211-5.024-12.8a34.1,34.1,0,0,1-6.02,2.069c1.124,6.135,3.466,10.193,5.607,13.881" transform="translate(-169.777 -648.62)" fill="#637d58"/>
    <path id="パス_3083" data-name="パス 3083" d="M111.237,14.159c-.721.4-1.42.807-2.1,1.2-1.118.649-2.222,1.287-3.373,1.888l.246.421c.967,1.666,1.91,3.305,2.737,5.113,1.247-.654,2.415-1.328,3.545-1.984.652-.377,1.3-.751,1.95-1.116-.893-1.885-1.865-3.562-2.8-5.169q-.1-.178-.205-.356" transform="translate(-168.57 -664.015)" fill="#a3958b"/>
    <path id="パス_3084" data-name="パス 3084" d="M106.855,46.95c1.865-.887,3.523-1.848,5.116-2.772,1.275-.739,2.532-1.467,3.861-2.138a36.917,36.917,0,0,0,1.394-7.445,43.123,43.123,0,0,0-6.8,3.219,30.692,30.692,0,0,1-3.572,9.137" transform="translate(-168.252 -658.078)" fill="#a3958b"/>
    <path id="パス_3085" data-name="パス 3085" d="M101.751,70.751a34.2,34.2,0,0,0,6.02-2.069,38.7,38.7,0,0,1-.413-5.831c0-.336.01-.652.017-.974a30.366,30.366,0,0,1-6.273,2.551,42.121,42.121,0,0,0,.649,6.322" transform="translate(-169.923 -650.152)" fill="#a3958b"/>
    <path id="パス_3086" data-name="パス 3086" d="M108.051,84.1a27.887,27.887,0,0,1,2.021,6.089q.79-.449,1.553-.893c1.364-.791,2.71-1.568,4.145-2.279a34.694,34.694,0,0,0-2.185-5.931c-1.865.887-3.524,1.849-5.116,2.773-.141.08-.279.161-.418.241" transform="translate(-167.904 -644.571)" fill="#a3958b"/>
    <path id="パス_3087" data-name="パス 3087" d="M107.9,107.893c-.373.667-.755,1.328-1.141,1.993a56.081,56.081,0,0,0-3.576,6.938A43.727,43.727,0,0,0,112.5,112.5a43.681,43.681,0,0,0,4.319-9.324,55.944,55.944,0,0,0-6.94,3.576c-.663.385-1.321.765-1.987,1.138" transform="translate(-169.32 -638.153)" fill="#a3958b"/>
  </g>
</svg>
