<svg id="グループ_302" data-name="グループ 302" xmlns="http://www.w3.org/2000/svg" xmlns:xlink="http://www.w3.org/1999/xlink" width="163.59" height="25.156" viewBox="0 0 163.59 25.156">
  <defs>
    <clipPath id="clip-path">
      <rect id="長方形_108" data-name="長方形 108" width="163.59" height="25.157" fill="none"/>
    </clipPath>
  </defs>
  <g id="グループ_301" data-name="グループ 301" transform="translate(0 0)" clip-path="url(#clip-path)">
    <path id="パス_3191" data-name="パス 3191" d="M21.609,23.653a18.743,18.743,0,0,1-7.579,1.774C5.708,25.427,0,21.975,0,13.042,0,4.463,6.709.5,13.321.5a21.524,21.524,0,0,1,7.837,1.516l-.71,2.483a9.371,9.371,0,0,0-7-2.58c-4.741,0-8.74,2.58-8.74,10,0,8.644,3.612,12.127,9.192,12.127a11.072,11.072,0,0,0,7.386-3.064Z" transform="translate(0 -0.27)"/>
    <path id="パス_3192" data-name="パス 3192" d="M54.921,13.01C54.921,5.495,59.275.5,67.306.5c8.128,0,12.385,5,12.385,12.514S75.434,25.427,67.306,25.427c-8.031,0-12.385-4.9-12.385-12.417m20.222.968c0-6.773-3.1-12.062-7.838-12.062-4.677,0-7.837,3.354-7.837,10.127s3.16,12,7.837,12c4.741,0,7.838-3.289,7.838-10.062" transform="translate(-29.924 -0.27)"/>
    <path id="パス_3193" data-name="パス 3193" d="M135.877,24.916c-2.871-4.128-12.45-17.448-14.9-20.738v10.9c.032,3.838.128,7.9.323,9.837h-2.387c.129-2,.258-5.966.323-9.772.032-1.806.032-4,.032-6.063,0-4.161-.032-8-.032-8l4.29-.516C126.2,4.243,133.78,14.757,136.07,17.982V10.919c-.064-3.838-.129-7.9-.322-9.837h2.386c-.129,2-.29,5.966-.322,9.772V24.916Z" transform="translate(-64.79 -0.309)"/>
    <path id="パス_3194" data-name="パス 3194" d="M175.981,25.419V3.165a47.872,47.872,0,0,0-6.966.484V1.488c2.161.1,5.644.129,9.224.129,3.129,0,6,0,9.127-.129V3.649a45.45,45.45,0,0,0-6.966-.484V25.419Z" transform="translate(-92.089 -0.811)"/>
    <path id="パス_3195" data-name="パス 3195" d="M228.837,24.609l-3.322-8.45h-9.837c-.9,2.065-2.644,6.289-3.483,8.45H209.9C211.743,20.416,217,8.224,220.129.774L223.257,0l10.837,24.609ZM220.613,3.935l-4.386,10.772H225Z" transform="translate(-114.369 0)"/>
    <path id="パス_3196" data-name="パス 3196" d="M287.638,23.653a18.739,18.739,0,0,1-7.579,1.774c-8.321,0-14.03-3.451-14.03-12.384C266.029,4.463,272.738.5,279.35.5a21.524,21.524,0,0,1,7.837,1.516l-.71,2.483a9.371,9.371,0,0,0-7-2.58c-4.741,0-8.74,2.58-8.74,10,0,8.644,3.612,12.127,9.192,12.127a11.07,11.07,0,0,0,7.386-3.064Z" transform="translate(-144.948 -0.27)"/>
    <path id="パス_3197" data-name="パス 3197" d="M326.074,25.419V3.165a47.872,47.872,0,0,0-6.966.484V1.488c2.161.1,5.644.129,9.224.129,3.129,0,6,0,9.127-.129V3.649a45.451,45.451,0,0,0-6.966-.484V25.419Z" transform="translate(-173.869 -0.811)"/>
  </g>
</svg>
