<svg id="グループ_300" data-name="グループ 300" xmlns="http://www.w3.org/2000/svg" xmlns:xlink="http://www.w3.org/1999/xlink" width="165.945" height="25.156" viewBox="0 0 165.945 25.156">
  <defs>
    <clipPath id="clip-path">
      <rect id="長方形_107" data-name="長方形 107" width="165.945" height="25.157" fill="none"/>
    </clipPath>
  </defs>
  <g id="グループ_299" data-name="グループ 299" transform="translate(0 0)" clip-path="url(#clip-path)">
    <path id="パス_3184" data-name="パス 3184" d="M21.609,23.653a18.743,18.743,0,0,1-7.579,1.774C5.708,25.427,0,21.975,0,13.042,0,4.463,6.709.5,13.321.5a21.514,21.514,0,0,1,7.837,1.516L20.448,4.5a9.37,9.37,0,0,0-7-2.58c-4.741,0-8.74,2.58-8.74,10,0,8.644,3.612,12.127,9.192,12.127a11.072,11.072,0,0,0,7.386-3.064Z" transform="translate(0 -0.27)"/>
    <path id="パス_3185" data-name="パス 3185" d="M54.921,13.01C54.921,5.495,59.275.5,67.306.5c8.128,0,12.385,5,12.385,12.514S75.434,25.427,67.306,25.427c-8.031,0-12.385-4.9-12.385-12.417m20.222.968c0-6.773-3.1-12.062-7.838-12.062-4.677,0-7.837,3.354-7.837,10.127s3.16,12,7.837,12c4.741,0,7.838-3.289,7.838-10.062" transform="translate(-29.924 -0.27)"/>
    <path id="パス_3186" data-name="パス 3186" d="M138.67,24.878V5.431c-1.387,3.257-6.031,14.191-8.031,19.125h-2.032c-1.709-4.58-6-15.771-7.773-20.028,0,0-.032,4.064-.032,7.838v2.677c.032,3.838.161,7.9.355,9.837H118.77c.129-2,.29-5.966.323-9.772.032-1.838.032-4,.032-6.1,0-4.16-.032-7.966-.032-7.966L123.608.5c1.548,4.322,5.741,15.481,7.192,19.222,1.58-3.709,6.031-14.481,7.676-18.674h4.612V24.878Z" transform="translate(-64.713 -0.27)"/>
    <path id="パス_3187" data-name="パス 3187" d="M184.038,25.535V1.7h8.74c3.967,0,7.741,2.289,7.741,7,0,4.677-3.774,6.966-7.741,6.966h-4.322v9.869Zm6.676-11.353A5.081,5.081,0,0,0,195.939,8.7c0-3.516-2.354-5.515-5.225-5.515h-2.257v11Z" transform="translate(-100.275 -0.927)"/>
    <path id="パス_3188" data-name="パス 3188" d="M238.333,24.608l-3.322-8.45h-9.837c-.9,2.065-2.644,6.289-3.483,8.45H219.4c1.838-4.193,7.1-16.384,10.224-23.834L232.753,0,243.59,24.608ZM230.109,3.935l-4.386,10.772h8.772Z" transform="translate(-119.543 0)"/>
    <path id="パス_3189" data-name="パス 3189" d="M293.694,24.917c-2.871-4.128-12.449-17.448-14.9-20.738v10.9c.032,3.838.129,7.9.323,9.837H276.73c.129-2,.258-5.966.323-9.772.032-1.806.032-4,.032-6.063,0-4.161-.032-8-.032-8l4.289-.516c2.677,3.677,10.256,14.191,12.546,17.416V10.92c-.064-3.838-.129-7.9-.322-9.837h2.386c-.129,2-.29,5.967-.322,9.772V24.917Z" transform="translate(-150.779 -0.309)"/>
    <path id="パス_3190" data-name="パス 3190" d="M331.287,25.534v-10L324,1.7h5.193l5.483,11.675c1.387-2.709,4.419-9.127,5.483-11.675h2.322c-1.709,3.29-5.192,10.256-6.773,13.611V25.534Z" transform="translate(-176.533 -0.926)"/>
  </g>
</svg>
