<svg xmlns="http://www.w3.org/2000/svg" xmlns:xlink="http://www.w3.org/1999/xlink" width="470.779" height="35.96" viewBox="0 0 470.779 35.96">
  <defs>
    <clipPath id="clip-path">
      <rect id="長方形_115" data-name="長方形 115" width="470.779" height="35.96" fill="#b7b7b7"/>
    </clipPath>
  </defs>
  <g id="グループ_310" data-name="グループ 310" transform="translate(0 0)">
    <g id="グループ_309" data-name="グループ 309" transform="translate(0 0)" clip-path="url(#clip-path)">
      <path id="パス_3219" data-name="パス 3219" d="M22.955,33.515C19.071,27.929,6.109,9.906,2.793,5.454V20.2c.044,5.193.174,10.692.437,13.311H0c.174-2.706.349-8.073.437-13.223.043-2.444.043-5.412.043-8.2C.48,6.457.437,1.264.437,1.264l5.8-.7c3.622,4.975,13.878,19.2,16.976,23.567V14.575c-.087-5.194-.174-10.692-.436-13.311H26.01c-.174,2.705-.392,8.073-.436,13.223V33.515Z" transform="translate(0 -0.217)" fill="#b7b7b7"/>
      <path id="パス_3220" data-name="パス 3220" d="M73.594,33.3,69.1,21.864H55.789c-1.222,2.794-3.578,8.51-4.713,11.434h-3.1c2.487-5.673,9.6-22.17,13.835-32.251L66.045,0,80.708,33.3ZM62.466,5.324,56.531,19.9H68.4Z" transform="translate(-18.43 0)" fill="#b7b7b7"/>
      <path id="パス_3221" data-name="パス 3221" d="M107.433,33.869V3.757a64.776,64.776,0,0,0-9.426.655V1.488c2.923.131,7.637.174,12.481.174,4.233,0,8.118,0,12.35-.174V4.411a61.5,61.5,0,0,0-9.426-.655V33.869Z" transform="translate(-37.648 -0.571)" fill="#b7b7b7"/>
      <path id="パス_3222" data-name="パス 3222" d="M168.312,14.661c0-5.237-.174-10.343-.436-12.961H171.1c-.174,2.706-.393,7.637-.436,12.874v8.379c0,5.586-2.4,11.74-10.867,11.74-10.954,0-13.747-5.761-13.747-11.74V1.7h5.979V22.953c0,6.023,2.88,9.3,7.986,9.3,5.193,0,8.291-3.273,8.291-9.3Z" transform="translate(-56.105 -0.653)" fill="#b7b7b7"/>
      <path id="パス_3223" data-name="パス 3223" d="M223.884,36.613c-5.63-1.44-10.343-4.059-13.136-7.157a29.3,29.3,0,0,1-5.717-9.732h-1.266V33.951h-5.979V1.7h11.87c5.368,0,10.43,2.662,10.43,9.034,0,5.062-3.36,8.6-9.165,8.728a32.584,32.584,0,0,0,4.5,8.379,25.064,25.064,0,0,0,9.033,7.463Zm-17.064-18.9c3.884,0,7.07-2.226,7.07-6.983s-3.186-7.026-7.07-7.026h-3.055V17.717Z" transform="translate(-75.978 -0.653)" fill="#b7b7b7"/>
      <path id="パス_3224" data-name="パス 3224" d="M266.7,33.3l-4.5-11.434H248.9c-1.222,2.794-3.578,8.51-4.713,11.434h-3.1c2.487-5.673,9.6-22.17,13.834-32.251L259.154,0l14.664,33.3ZM255.575,5.324,249.64,19.9h11.87Z" transform="translate(-92.61 0)" fill="#b7b7b7"/>
      <path id="パス_3225" data-name="パス 3225" d="M298.982,33.951V1.7h6.2V31.681a107.733,107.733,0,0,0,14.1-.873v3.142Z" transform="translate(-114.85 -0.653)" fill="#b7b7b7"/>
      <path id="パス_3226" data-name="パス 3226" d="M388.483,33.488V7.173c-1.877,4.408-8.161,19.2-10.867,25.879h-2.749c-2.313-6.2-8.117-21.34-10.518-27.1,0,0-.043,5.5-.043,10.605v3.622c.043,5.193.218,10.692.48,13.311h-3.23c.175-2.706.393-8.073.437-13.223.044-2.487.044-5.412.044-8.248,0-5.63-.044-10.779-.044-10.779L368.1.5c2.095,5.848,7.768,20.947,9.732,26.01C379.973,21.487,386,6.911,388.221,1.237h6.241V33.488Z" transform="translate(-138.888 -0.19)" fill="#b7b7b7"/>
      <path id="パス_3227" data-name="パス 3227" d="M448.118,33.3l-4.5-11.434H430.313c-1.222,2.794-3.578,8.51-4.713,11.434h-3.1c2.487-5.673,9.6-22.17,13.834-32.251L440.569,0l14.664,33.3ZM436.99,5.324,431.055,19.9h11.87Z" transform="translate(-162.299 0)" fill="#b7b7b7"/>
      <path id="パス_3228" data-name="パス 3228" d="M480.54,33.869V3.757a64.776,64.776,0,0,0-9.426.655V1.488c2.924.131,7.637.174,12.481.174,4.233,0,8.118,0,12.351-.174V4.411a61.5,61.5,0,0,0-9.426-.655V33.869Z" transform="translate(-180.973 -0.571)" fill="#b7b7b7"/>
      <path id="パス_3229" data-name="パス 3229" d="M519.161,33.815V1.564s11.827,0,18.5-.218V4.269a86.825,86.825,0,0,0-12.525-.654V15.442c3.012,0,6.983-.174,9.907-.436v3.011c-2.837-.262-6.9-.436-9.907-.436V31.545a111.339,111.339,0,0,0,14.314-.873v3.142Z" transform="translate(-199.43 -0.517)" fill="#b7b7b7"/>
      <path id="パス_3230" data-name="パス 3230" d="M586.5,36.613c-5.63-1.44-10.343-4.059-13.136-7.157a29.3,29.3,0,0,1-5.717-9.732h-1.266V33.951h-5.979V1.7h11.87c5.368,0,10.43,2.662,10.43,9.034,0,5.062-3.36,8.6-9.165,8.728a32.585,32.585,0,0,0,4.5,8.379,25.064,25.064,0,0,0,9.033,7.463Zm-17.064-18.9c3.884,0,7.07-2.226,7.07-6.983s-3.186-7.026-7.07-7.026h-3.055V17.717Z" transform="translate(-215.273 -0.653)" fill="#b7b7b7"/>
      <rect id="長方形_114" data-name="長方形 114" width="6.066" height="32.251" transform="translate(376.206 1.048)" fill="#b7b7b7"/>
      <path id="パス_3231" data-name="パス 3231" d="M652.494,33.3,648,21.864H634.689c-1.222,2.794-3.578,8.51-4.713,11.434h-3.1c2.487-5.673,9.6-22.17,13.834-32.251L644.945,0l14.664,33.3ZM641.366,5.324,635.431,19.9H647.3Z" transform="translate(-240.808 0)" fill="#b7b7b7"/>
      <path id="パス_3232" data-name="パス 3232" d="M686.19,33.951V1.7h6.2V31.681a107.734,107.734,0,0,0,14.1-.873v3.142Z" transform="translate(-263.592 -0.653)" fill="#b7b7b7"/>
      <path id="パス_3233" data-name="パス 3233" d="M725.625,27.815c2.051,2.619,6.023,4.19,9.906,4.19,5.455,0,7.681-2.182,7.681-5.368,0-2.924-2.095-5.28-8.9-7.681-7.2-2.531-9.47-5.761-9.47-9.907C724.839,4.162,728.2.5,736.186.5a22.425,22.425,0,0,1,10.3,2.356l-.96,3.36A12.531,12.531,0,0,0,736.667,2.5c-5.019,0-6.415,2.182-6.415,4.539,0,3.054.917,4.451,7.768,6.939,7.637,2.793,11,5.891,11,11,0,5.586-4.233,9.252-13.179,9.252a25.114,25.114,0,0,1-11.522-3.055Z" transform="translate(-278.238 -0.19)" fill="#b7b7b7"/>
    </g>
  </g>
</svg>
