<svg xmlns="http://www.w3.org/2000/svg" xmlns:xlink="http://www.w3.org/1999/xlink" width="206.965" height="35.96" viewBox="0 0 206.965 35.96">
  <defs>
    <clipPath id="clip-path">
      <rect id="長方形_112" data-name="長方形 112" width="206.965" height="35.96" fill="#b7b7b7"/>
    </clipPath>
  </defs>
  <g id="グループ_342" data-name="グループ 342" transform="translate(0 0)">
    <g id="グループ_305" data-name="グループ 305" transform="translate(0 0.001)" clip-path="url(#clip-path)">
      <path id="パス_3208" data-name="パス 3208" d="M0,35.647V1.576s12.494,0,19.548-.23V4.434A91.723,91.723,0,0,0,6.316,3.743V16.329c3.181,0,7.377-.185,10.466-.461v3c-3-.277-7.284-.461-10.466-.461V35.647Z" transform="translate(0 -0.471)" fill="#b7b7b7"/>
      <path id="パス_3209" data-name="パス 3209" d="M57.677,35.177,52.928,23.1H38.866c-1.291,2.951-3.78,8.99-4.979,12.079H30.614c2.628-5.993,10.142-23.42,14.615-34.07L49.7,0,65.192,35.177ZM45.92,5.624l-6.27,15.4H52.19Z" transform="translate(-10.696 0)" fill="#b7b7b7"/>
      <path id="パス_3210" data-name="パス 3210" d="M86.705,29.357c2.167,2.766,6.362,4.426,10.465,4.426,5.763,0,8.114-2.305,8.114-5.671,0-3.089-2.213-5.578-9.405-8.114-7.607-2.674-10-6.086-10-10.466C85.875,4.369,89.425.5,97.862.5a23.69,23.69,0,0,1,10.881,2.489l-1.014,3.55a13.238,13.238,0,0,0-9.359-3.919c-5.3,0-6.777,2.305-6.777,4.795,0,3.226.969,4.7,8.207,7.33,8.068,2.95,11.618,6.224,11.618,11.618,0,5.9-4.472,9.774-13.923,9.774a26.531,26.531,0,0,1-12.172-3.228Z" transform="translate(-29.811 -0.174)" fill="#b7b7b7"/>
      <path id="パス_3211" data-name="パス 3211" d="M155.141,35.771V19.358H141.172V35.771h-6.316V1.7h6.316V16.915h13.969V1.7h6.316v34.07Z" transform="translate(-47.118 -0.594)" fill="#b7b7b7"/>
      <rect id="長方形_111" data-name="長方形 111" width="6.408" height="34.07" transform="translate(124.853 1.106)" fill="#b7b7b7"/>
      <path id="パス_3212" data-name="パス 3212" d="M211.886,18.384C211.886,7.642,218.11.5,229.59.5c11.618,0,17.7,7.146,17.7,17.888s-6.085,17.75-17.7,17.75c-11.479,0-17.7-7.008-17.7-17.75m28.907,1.383c0-9.682-4.426-17.242-11.2-17.242-6.685,0-11.2,4.794-11.2,14.476s4.518,17.15,11.2,17.15c6.777,0,11.2-4.7,11.2-14.384" transform="translate(-74.032 -0.174)" fill="#b7b7b7"/>
      <path id="パス_3213" data-name="パス 3213" d="M300.128,35.374c-4.1-5.9-17.8-24.942-21.3-29.644V21.313c.046,5.486.184,11.3.461,14.062h-3.412c.184-2.859.369-8.529.461-13.969.046-2.582.046-5.717.046-8.667,0-5.948-.046-11.434-.046-11.434l6.131-.738c3.827,5.256,14.661,20.286,17.934,24.9v-10.1c-.092-5.487-.184-11.3-.461-14.062h3.411c-.184,2.858-.414,8.529-.461,13.969v20.1Z" transform="translate(-96.39 -0.198)" fill="#b7b7b7"/>
    </g>
  </g>
</svg>
