<svg xmlns="http://www.w3.org/2000/svg" xmlns:xlink="http://www.w3.org/1999/xlink" width="20.073" height="72.167" viewBox="0 0 20.073 72.167">
  <defs>
    <clipPath id="clip-path">
      <rect id="長方形_105" data-name="長方形 105" width="72.167" height="20.073" fill="#a2938a"/>
    </clipPath>
  </defs>
  <g id="グループ_340" data-name="グループ 340" transform="translate(20.073) rotate(90)">
    <g id="グループ_295" data-name="グループ 295" transform="translate(0 0)" clip-path="url(#clip-path)">
      <path id="パス_3177" data-name="パス 3177" d="M13.659,19.677c-2.311-3.324-10.024-14.048-12-16.7v8.777c.026,3.09.1,6.362.26,7.92H0c.1-1.61.207-4.8.26-7.868.026-1.454.026-3.22.026-4.882C.285,3.577.26.487.26.487L3.713.072c2.155,2.96,8.258,11.426,10.1,14.022V8.407c-.052-3.09-.1-6.362-.259-7.92h1.921c-.1,1.61-.233,4.8-.259,7.868V19.677Z" transform="translate(0 -0.046)" fill="#a2938a"/>
      <path id="パス_3178" data-name="パス 3178" d="M53.716,20.171V.981s7.037,0,11.01-.13v1.74a51.657,51.657,0,0,0-7.453-.39V9.238c1.792,0,4.155-.1,5.895-.26v1.792c-1.688-.156-4.1-.26-5.895-.26v8.31a66.185,66.185,0,0,0,8.517-.519v1.87Z" transform="translate(-34.032 -0.539)" fill="#a2938a"/>
      <path id="パス_3179" data-name="パス 3179" d="M105.305,20.4,100.5,5.152,96.4,20.4h-1.74L88.582,1.2h4.285l3.688,13.711L99.93,1.724l3.116-.467,4.129,13.711c.961-3.48,2.856-10.491,3.635-13.763H112.6c-1.3,4.466-4.025,13.711-5.557,19.19Z" transform="translate(-56.121 -0.764)" fill="#a2938a"/>
      <path id="パス_3180" data-name="パス 3180" d="M157.605,16.256a7.677,7.677,0,0,0,5.894,2.493c3.246,0,4.57-1.3,4.57-3.194,0-1.74-1.246-3.142-5.3-4.57-4.285-1.506-5.635-3.428-5.635-5.895,0-2.908,2-5.09,6.752-5.09a13.343,13.343,0,0,1,6.129,1.4l-.571,2a7.456,7.456,0,0,0-5.271-2.207c-2.986,0-3.817,1.3-3.817,2.7,0,1.818.546,2.649,4.622,4.129,4.544,1.662,6.544,3.505,6.544,6.544,0,3.324-2.519,5.505-7.842,5.505a14.943,14.943,0,0,1-6.856-1.818Z" transform="translate(-99.357 0)" fill="#a2938a"/>
    </g>
  </g>
</svg>
