<svg id="グループ_296" data-name="グループ 296" xmlns="http://www.w3.org/2000/svg" xmlns:xlink="http://www.w3.org/1999/xlink" width="89.633" height="24.931" viewBox="0 0 89.633 24.931">
  <defs>
    <clipPath id="clip-path">
      <rect id="長方形_105" data-name="長方形 105" width="89.633" height="24.931" fill="none"/>
    </clipPath>
  </defs>
  <g id="グループ_295" data-name="グループ 295" transform="translate(0 0)" clip-path="url(#clip-path)">
    <path id="パス_3177" data-name="パス 3177" d="M16.964,24.422C14.094,20.294,4.515,6.974,2.064,3.684v10.9c.032,3.838.129,7.9.323,9.837H0c.129-2,.258-5.966.323-9.772.032-1.806.032-4,.032-6.063,0-4.16-.032-8-.032-8L4.612.072C7.289,3.749,14.868,14.263,17.158,17.488V10.425c-.064-3.838-.129-7.9-.322-9.837h2.386c-.129,2-.29,5.967-.322,9.772V24.422Z" transform="translate(0 -0.039)"/>
    <path id="パス_3178" data-name="パス 3178" d="M53.716,24.846V1.012s8.741,0,13.675-.161V3.012a64.159,64.159,0,0,0-9.257-.484v8.741c2.226,0,5.16-.129,7.321-.323v2.226c-2.1-.193-5.1-.323-7.321-.323V23.169a82.2,82.2,0,0,0,10.579-.645v2.322Z" transform="translate(-29.268 -0.464)"/>
    <path id="パス_3179" data-name="パス 3179" d="M109.352,25.039,103.386,6.107l-5.1,18.932H96.129L88.582,1.2H93.9l4.58,17.029L102.676,1.85l3.87-.58L111.674,18.3c1.193-4.322,3.547-13.03,4.515-17.094h2.226c-1.613,5.547-5,17.029-6.9,23.834Z" transform="translate(-48.265 -0.657)"/>
    <path id="パス_3180" data-name="パス 3180" d="M157.794,20.19a9.535,9.535,0,0,0,7.321,3.1c4.032,0,5.677-1.613,5.677-3.967,0-2.161-1.548-3.9-6.579-5.676-5.322-1.871-7-4.257-7-7.321C157.213,2.709,159.7,0,165.6,0a16.572,16.572,0,0,1,7.612,1.742l-.71,2.483a9.261,9.261,0,0,0-6.547-2.741c-3.709,0-4.741,1.613-4.741,3.354,0,2.257.678,3.29,5.741,5.128,5.644,2.064,8.127,4.354,8.127,8.127,0,4.128-3.129,6.838-9.74,6.838a18.56,18.56,0,0,1-8.515-2.258Z" transform="translate(-85.448 0)"/>
  </g>
</svg>
