<svg xmlns="http://www.w3.org/2000/svg" xmlns:xlink="http://www.w3.org/1999/xlink" width="19.437" height="48.944" viewBox="0 0 19.437 48.944">
  <defs>
    <clipPath id="clip-path">
      <rect id="長方形_106" data-name="長方形 106" width="48.944" height="19.437" fill="#a2938a"/>
    </clipPath>
  </defs>
  <g id="グループ_324" data-name="グループ 324" transform="translate(19.437) rotate(90)">
    <g id="グループ_297" data-name="グループ 297" transform="translate(0 0)" clip-path="url(#clip-path)">
      <path id="パス_3181" data-name="パス 3181" d="M0,20.526V1.7H3.617V19.2a62.823,62.823,0,0,0,8.228-.509v1.834Z" transform="translate(0 -1.089)" fill="#a2938a"/>
      <path id="パス_3182" data-name="パス 3182" d="M53.362,19.437l-2.624-6.674h-7.77c-.713,1.631-2.089,4.968-2.751,6.674H38.409C39.861,16.125,44.013,6.5,46.484.611L48.955,0l8.56,19.437Zm-6.5-16.329L43.4,11.616h6.929Z" transform="translate(-24.601 0)" fill="#a2938a"/>
      <path id="パス_3183" data-name="パス 3183" d="M96.306,20.527V1.7h5.885c2.929,0,5.171,1.707,5.171,4.28a4.17,4.17,0,0,1-3.159,4.2,5.021,5.021,0,0,1,5.171,5.044c0,3.21-2.8,5.3-5.936,5.3ZM100.79,9.572a3.1,3.1,0,0,0,3.184-3.414c0-2.344-1.121-3.362-2.878-3.362H99.8V9.572Zm1.044,9.833a3.95,3.95,0,0,0,4.127-4.254c0-2.9-1.758-4.535-4.279-4.535H99.8v8.789Z" transform="translate(-60.43 -1.09)" fill="#a2938a"/>
    </g>
  </g>
</svg>
