<?xml version="1.0" encoding="utf-8"?>
<!-- Generator: Adobe Illustrator 26.3.1, SVG Export Plug-In . SVG Version: 6.00 Build 0)  -->
<svg version="1.1" id="レイヤー_1" xmlns="http://www.w3.org/2000/svg" xmlns:xlink="http://www.w3.org/1999/xlink" x="0px"
	 y="0px" viewBox="0 0 72.2 20.1" style="enable-background:new 0 0 72.2 20.1;" xml:space="preserve">
<style type="text/css">
	.st0{fill:#A2938A;}
</style>
<g id="グループ_340" transform="translate(20.073) rotate(90)">
	<g>
		<g id="グループ_295" transform="translate(0 0)">
			<path id="パス_3177" class="st0" d="M19.6,6.4c-3.3,2.3-14,10-16.7,12h8.8c3.1,0,6.4-0.1,7.9-0.3v1.9c-1.6-0.1-4.8-0.2-7.9-0.3
				c-1.5,0-3.2,0-4.9,0c-3.3,0-6.4,0-6.4,0L0,16.4c3-2.2,11.4-8.3,14-10.1H8.4C5.3,6.3,2,6.4,0.4,6.5V4.6c1.6,0.1,4.8,0.2,7.9,0.3
				h11.3V6.4z"/>
			<path id="パス_3178" class="st0" d="M19.6,0.4H0.4c0,0,0-7-0.1-11h1.7c-0.3,2.5-0.4,5-0.4,7.5h7c0-1.8-0.1-4.2-0.3-5.9h1.8
				C10.1-7.4,10-5,10-3.2h8.3c0-2.8-0.2-5.7-0.5-8.5h1.9L19.6,0.4z"/>
			<path id="パス_3179" class="st0" d="M19.6-29.1L4.4-24.3l15.2,4.1v1.7L0.4-12.4v-4.3l13.7-3.7L1-23.7l-0.5-3.1L14.2-31
				c-3.5-1-10.5-2.9-13.8-3.6v-1.8c4.5,1.3,13.7,4,19.2,5.6L19.6-29.1z"/>
			<path id="パス_3180" class="st0" d="M16.3-38.2c1.6-1.5,2.6-3.7,2.5-5.9c0-3.2-1.3-4.6-3.2-4.6c-1.7,0-3.1,1.2-4.6,5.3
				c-1.5,4.3-3.4,5.6-5.9,5.6c-2.9,0-5.1-2-5.1-6.8c0-2.1,0.5-4.2,1.4-6.1l2,0.6c-1.4,1.4-2.2,3.3-2.2,5.3c0,3,1.3,3.8,2.7,3.8
				c1.8,0,2.6-0.5,4.1-4.6c1.7-4.5,3.5-6.5,6.5-6.5c3.3,0,5.5,2.5,5.5,7.8c0,2.4-0.7,4.7-1.8,6.9L16.3-38.2z"/>
		</g>
	</g>
</g>
</svg>
