<svg xmlns="http://www.w3.org/2000/svg" xmlns:xlink="http://www.w3.org/1999/xlink" width="19.953" height="242.668" viewBox="0 0 19.953 242.668">
  <defs>
    <clipPath id="clip-path">
      <rect id="長方形_116" data-name="長方形 116" width="19.953" height="99.648" fill="none"/>
    </clipPath>
    <clipPath id="clip-path-2">
      <rect id="長方形_117" data-name="長方形 117" width="14.57" height="134.195" fill="none" stroke="rgba(0,0,0,0)" stroke-width="1"/>
    </clipPath>
  </defs>
  <g id="グループ_316" data-name="グループ 316" transform="translate(-1830.047 -901.481)">
    <g id="グループ_313" data-name="グループ 313" transform="translate(1830.047 901.481)">
      <g id="グループ_312" data-name="グループ 312" clip-path="url(#clip-path)">
        <path id="パス_3234" data-name="パス 3234" d="M6.707.733A7.219,7.219,0,0,0,4.363,6.277c0,3.053,1.221,4.3,3,4.3,1.636,0,2.955-1.172,4.3-4.982,1.417-4.03,3.224-5.3,5.544-5.3C19.944.293,22,2.174,22,6.643a12.549,12.549,0,0,1-1.319,5.764l-1.88-.537a7.013,7.013,0,0,0,2.076-4.958c0-2.809-1.221-3.59-2.54-3.59-1.709,0-2.491.512-3.883,4.347-1.563,4.274-3.3,6.154-6.154,6.154-3.126,0-5.178-2.369-5.178-7.375A14.054,14.054,0,0,1,4.827,0Z" transform="translate(-2.043)"/>
        <path id="パス_3235" data-name="パス 3235" d="M4.461,64.125a14.189,14.189,0,0,1-1.343-5.739c0-6.3,2.613-10.624,9.378-10.624,6.5,0,9.5,5.08,9.5,10.087a16.3,16.3,0,0,1-1.148,5.935l-1.88-.538a7.1,7.1,0,0,0,1.953-5.3c0-3.59-1.953-6.619-7.571-6.619-6.545,0-9.183,2.736-9.183,6.961a8.382,8.382,0,0,0,2.32,5.593Z" transform="translate(-2.043 -31.301)"/>
        <path id="パス_3236" data-name="パス 3236" d="M0,119.06a15.028,15.028,0,0,1,4.005-7.351,16.4,16.4,0,0,1,5.446-3.2V107.8H1.49v-3.346H19.538V111.1c0,3-1.49,5.837-5.056,5.837-2.833,0-4.811-1.88-4.884-5.129a18.224,18.224,0,0,0-4.689,2.516,14.023,14.023,0,0,0-4.176,5.055Zm10.575-9.549a3.65,3.65,0,0,0,3.908,3.956,3.669,3.669,0,0,0,3.932-3.956V107.8h-7.84Z" transform="translate(0 -68.455)"/>
        <path id="パス_3237" data-name="パス 3237" d="M12.52,150.3c5.69,0,9.476,3.3,9.476,9.378,0,6.155-3.785,9.378-9.476,9.378s-9.4-3.224-9.4-9.378c0-6.081,3.712-9.378,9.4-9.378m-.733,15.313c5.129,0,9.134-2.345,9.134-5.935,0-3.541-2.54-5.934-7.668-5.934s-9.085,2.393-9.085,5.934c0,3.59,2.491,5.935,7.619,5.935" transform="translate(-2.043 -98.503)"/>
        <path id="パス_3238" data-name="パス 3238" d="M4.322,214.864H22.37v3.468H5.592a60.282,60.282,0,0,0,.488,7.888H4.322Z" transform="translate(-2.832 -140.811)"/>
        <path id="パス_3239" data-name="パス 3239" d="M4.322,256.179H22.37v3.468H5.592a60.282,60.282,0,0,0,.488,7.888H4.322Z" transform="translate(-2.832 -167.887)"/>
      </g>
    </g>
    <g id="グループ_315" data-name="グループ 315" transform="translate(1832.047 1009.954)">
      <g id="グループ_314" data-name="グループ 314" clip-path="url(#clip-path-2)">
        <path id="パス_3240" data-name="パス 3240" d="M1.417,0V133.218L15.3,119.339" transform="translate(-1.013 0)" fill="none" stroke="#000" stroke-width="1"/>
      </g>
    </g>
  </g>
</svg>
