<svg xmlns="http://www.w3.org/2000/svg" xmlns:xlink="http://www.w3.org/1999/xlink" width="19.042" height="174.996" viewBox="0 0 19.042 174.996">
  <defs>
    <clipPath id="clip-path">
      <rect id="長方形_110" data-name="長方形 110" width="174.996" height="19.042" fill="#a2938a"/>
    </clipPath>
  </defs>
  <g id="グループ_303" data-name="グループ 303" transform="translate(19.042) rotate(90)" clip-path="url(#clip-path)">
    <path id="パス_3198" data-name="パス 3198" d="M14.33,18.627l-2.515-6.4H4.37c-.684,1.563-2,4.76-2.637,6.4H0C1.391,15.453,5.371,6.225,7.739.586L10.107,0l8.2,18.627ZM8.1,2.978l-3.32,8.154h6.64Z" transform="translate(0 0)" fill="#a2938a"/>
    <path id="パス_3199" data-name="パス 3199" d="M69.647,18.024a14.184,14.184,0,0,1-5.737,1.343c-6.3,0-10.62-2.612-10.62-9.374C53.29,3.5,58.368.5,63.373.5A16.292,16.292,0,0,1,69.3,1.643l-.537,1.88a7.093,7.093,0,0,0-5.3-1.953c-3.589,0-6.616,1.953-6.616,7.568,0,6.543,2.734,9.179,6.957,9.179A8.379,8.379,0,0,0,69.4,16Z" transform="translate(-34.931 -0.325)" fill="#a2938a"/>
    <path id="パス_3200" data-name="パス 3200" d="M120.724,19.741V11.05h-7.4v8.691h-3.345V1.7h3.345V9.757h7.4V1.7h3.344V19.741Z" transform="translate(-72.092 -1.115)" fill="#a2938a"/>
    <rect id="長方形_109" data-name="長方形 109" width="3.393" height="18.041" transform="translate(56.078 0.586)" fill="#a2938a"/>
    <path id="パス_3201" data-name="パス 3201" d="M184.533,19.509V1.468s6.616,0,10.351-.122V2.981a48.567,48.567,0,0,0-7.006-.366V9.231c1.684,0,3.906-.1,5.541-.244v1.684c-1.587-.146-3.857-.244-5.541-.244v7.812a62.287,62.287,0,0,0,8.007-.488v1.758Z" transform="translate(-120.96 -0.882)" fill="#a2938a"/>
    <path id="パス_3202" data-name="パス 3202" d="M226.754,19.741,219.186,1.7h4.028l5.3,13.891C229.757,12.075,232,5.484,233.174,1.7h1.709c-1.416,3.784-4.638,12.866-6.518,18.041Z" transform="translate(-143.675 -1.115)" fill="#a2938a"/>
    <path id="パス_3203" data-name="パス 3203" d="M271.059,19.509V1.468s6.616,0,10.351-.122V2.981a48.569,48.569,0,0,0-7.007-.366V9.231c1.685,0,3.906-.1,5.542-.244v1.684c-1.587-.146-3.857-.244-5.542-.244v7.812a62.283,62.283,0,0,0,8.007-.488v1.758Z" transform="translate(-177.677 -0.882)" fill="#a2938a"/>
    <path id="パス_3204" data-name="パス 3204" d="M326.656,18.952V4.231c-1.05,2.466-4.565,10.741-6.079,14.476h-1.538c-1.294-3.466-4.541-11.938-5.884-15.16,0,0-.024,3.076-.024,5.932v2.026c.024,2.9.122,5.981.268,7.446h-1.807c.1-1.514.22-4.516.244-7.4.024-1.391.024-3.027.024-4.614,0-3.149-.024-6.03-.024-6.03L315.255.5c1.172,3.271,4.345,11.718,5.444,14.55,1.2-2.807,4.565-10.961,5.81-14.135H330V18.952Z" transform="translate(-204.247 -0.325)" fill="#a2938a"/>
    <path id="パス_3205" data-name="パス 3205" d="M376.86,19.509V1.468s6.616,0,10.351-.122V2.981a48.569,48.569,0,0,0-7.007-.366V9.231c1.685,0,3.906-.1,5.542-.244v1.684c-1.587-.146-3.857-.244-5.542-.244v7.812a62.283,62.283,0,0,0,8.007-.488v1.758Z" transform="translate(-247.028 -0.882)" fill="#a2938a"/>
    <path id="パス_3206" data-name="パス 3206" d="M430.378,19C428.205,15.873,420.955,5.79,419.1,3.3v8.251c.024,2.9.1,5.981.244,7.446h-1.807c.1-1.514.195-4.516.244-7.4.024-1.367.024-3.027.024-4.59,0-3.149-.024-6.054-.024-6.054l3.247-.391c2.026,2.783,7.763,10.742,9.5,13.183V8.4c-.049-2.905-.1-5.981-.244-7.446h1.806c-.1,1.513-.219,4.516-.244,7.4V19Z" transform="translate(-273.692 -0.371)" fill="#a2938a"/>
    <path id="パス_3207" data-name="パス 3207" d="M472.912,19.6V2.757a36.235,36.235,0,0,0-5.273.366V1.488c1.635.073,4.272.1,6.982.1,2.368,0,4.541,0,6.909-.1V3.123a34.4,34.4,0,0,0-5.273-.366V19.6Z" transform="translate(-306.533 -0.976)" fill="#a2938a"/>
  </g>
</svg>
