<svg id="グループ_308" data-name="グループ 308" xmlns="http://www.w3.org/2000/svg" xmlns:xlink="http://www.w3.org/1999/xlink" width="104.243" height="24.351" viewBox="0 0 104.243 24.351">
  <defs>
    <clipPath id="clip-path">
      <rect id="長方形_113" data-name="長方形 113" width="104.243" height="24.35" fill="none"/>
    </clipPath>
  </defs>
  <g id="グループ_307" data-name="グループ 307" transform="translate(0 0)" clip-path="url(#clip-path)">
    <path id="パス_3214" data-name="パス 3214" d="M0,24.968V1.134H7.45C11.159,1.134,14,3.3,14,6.552a5.28,5.28,0,0,1-4,5.322,6.357,6.357,0,0,1,6.547,6.386c0,4.064-3.548,6.708-7.515,6.708ZM5.676,11.1c2.29,0,4.032-1.548,4.032-4.322,0-2.967-1.419-4.257-3.644-4.257H4.419V11.1ZM7,23.549a5,5,0,0,0,5.225-5.386c0-3.677-2.225-5.741-5.418-5.741H4.419V23.549Z" transform="translate(0 -0.618)"/>
    <path id="パス_3215" data-name="パス 3215" d="M46.2,24.968V1.134h4.58V23.291A79.615,79.615,0,0,0,61.2,22.646v2.322Z" transform="translate(-25.175 -0.618)"/>
    <path id="パス_3216" data-name="パス 3216" d="M87.519,24.775V.941s8.741,0,13.675-.161V2.941a64.166,64.166,0,0,0-9.257-.483V11.2c2.226,0,5.16-.129,7.321-.322V13.1c-2.1-.193-5.1-.322-7.321-.322V23.1a82.284,82.284,0,0,0,10.579-.645v2.322Z" transform="translate(-47.686 -0.425)"/>
    <path id="パス_3217" data-name="パス 3217" d="M145.159,24.35c-2.871-4.128-12.449-17.448-14.9-20.738v10.9c.032,3.838.129,7.9.323,9.837H128.2c.129-2,.258-5.966.323-9.772.032-1.806.032-4,.032-6.063,0-4.161-.032-8-.032-8L132.807,0c2.677,3.677,10.256,14.191,12.546,17.416V10.353c-.064-3.838-.129-7.9-.322-9.837h2.386c-.129,2-.29,5.966-.322,9.772V24.35Z" transform="translate(-69.848 0)"/>
    <path id="パス_3218" data-name="パス 3218" d="M181.911,24.968V1.134h7.9c6.547,0,13.546,3.1,13.546,11.9,0,9.03-6.29,11.933-13.288,11.933Zm6.934-1.419c4.967,0,10-2.1,10-10.611,0-7.837-5.225-10.385-10.481-10.385h-2.032v21Z" transform="translate(-99.116 -0.618)"/>
  </g>
</svg>
