<?xml version="1.0" encoding="utf-8"?>
<!-- Generator: Adobe Illustrator 26.3.1, SVG Export Plug-In . SVG Version: 6.00 Build 0)  -->
<svg version="1.1" id="レイヤー_1" xmlns="http://www.w3.org/2000/svg" xmlns:xlink="http://www.w3.org/1999/xlink" x="0px"
	 y="0px" viewBox="0 0 48.9 19.4" style="enable-background:new 0 0 48.9 19.4;" xml:space="preserve">
<style type="text/css">
	.st0{fill:#A2938A;}
</style>
<g id="グループ_324" transform="translate(19.437) rotate(90)">
	<g>
		<g id="グループ_297" transform="translate(0 0)">
			<path id="パス_3181" class="st0" d="M19.4,19.4H0.6v-3.6h17.5c0-2.8-0.2-5.5-0.5-8.2h1.8L19.4,19.4z"/>
			<path id="パス_3182" class="st0" d="M19.4-9.3l-6.7,2.6v7.8c1.6,0.7,5,2.1,6.7,2.8v1.8C16.1,4.2,6.5,0,0.6-2.4L0-4.9l19.4-8.6
				V-9.3z M3.1-2.8l8.5,3.5v-6.9L3.1-2.8z"/>
			<path id="パス_3183" class="st0" d="M19.4-16.4H0.6v-5.9c0-2.9,1.7-5.2,4.3-5.2c2-0.1,3.7,1.2,4.2,3.2
				c-0.1-2.8,2.1-5.1,4.9-5.2c0.1,0,0.1,0,0.2,0c3.2,0,5.3,2.8,5.3,5.9L19.4-16.4z M8.5-20.9c0.1-1.7-1.3-3.1-3-3.2
				c-0.1,0-0.3,0-0.4,0c-2.3,0-3.4,1.1-3.4,2.9v1.3h6.8V-20.9z M18.3-22c0.1-2.2-1.6-4-3.8-4.1c-0.2,0-0.3,0-0.5,0
				c-2.9,0-4.5,1.8-4.5,4.3v1.9h8.8V-22z"/>
		</g>
	</g>
</g>
</svg>
