<svg id="グループ_294" data-name="グループ 294" xmlns="http://www.w3.org/2000/svg" xmlns:xlink="http://www.w3.org/1999/xlink" width="96.987" height="24.931" viewBox="0 0 96.987 24.931">
  <defs>
    <clipPath id="clip-path">
      <rect id="長方形_104" data-name="長方形 104" width="96.986" height="24.931" fill="none"/>
    </clipPath>
  </defs>
  <path id="パス_3173" data-name="パス 3173" d="M14.191,1.2V11.848H4.419V1.2H0V25.039H4.419V13.557h9.772V25.039h4.419V1.2Z" transform="translate(0 -0.657)"/>
  <g id="グループ_293" data-name="グループ 293" transform="translate(0 0)">
    <g id="グループ_292" data-name="グループ 292" clip-path="url(#clip-path)">
      <path id="パス_3174" data-name="パス 3174" d="M51.023,12.514C51.023,5,55.377,0,63.408,0c8.128,0,12.385,5,12.385,12.514S71.536,24.931,63.408,24.931c-8.031,0-12.385-4.9-12.385-12.417m20.222.968c0-6.773-3.1-12.062-7.838-12.062-4.677,0-7.837,3.354-7.837,10.127s3.16,12,7.837,12c4.741,0,7.838-3.29,7.838-10.063" transform="translate(-27.8 0)"/>
      <path id="パス_3175" data-name="パス 3175" d="M134.772,24.383V4.935c-1.387,3.257-6.031,14.191-8.031,19.125h-2.032c-1.709-4.58-6-15.772-7.773-20.029,0,0-.032,4.064-.032,7.837v2.677c.032,3.838.161,7.9.355,9.837h-2.387c.129-2,.29-5.966.323-9.772.032-1.838.032-4,.032-6.1,0-4.16-.032-7.966-.032-7.966L119.71,0c1.548,4.322,5.741,15.481,7.192,19.222,1.58-3.709,6.031-14.481,7.676-18.674h4.612V24.383Z" transform="translate(-62.589 0)"/>
      <path id="パス_3176" data-name="パス 3176" d="M180.14,24.846V1.012s8.741,0,13.675-.161V3.012a64.159,64.159,0,0,0-9.257-.484v8.741c2.226,0,5.16-.129,7.321-.323v2.226c-2.1-.193-5.1-.323-7.321-.323V23.169a82.2,82.2,0,0,0,10.579-.645v2.322Z" transform="translate(-98.151 -0.464)"/>
    </g>
  </g>
</svg>
