<?xml version="1.0" encoding="utf-8"?>
<!-- Generator: Adobe Illustrator 26.3.1, SVG Export Plug-In . SVG Version: 6.00 Build 0)  -->
<svg version="1.1" id="レイヤー_1" xmlns="http://www.w3.org/2000/svg" xmlns:xlink="http://www.w3.org/1999/xlink" x="0px"
	 y="0px" viewBox="0 0 175 19" style="enable-background:new 0 0 175 19;" xml:space="preserve">
<style type="text/css">
	.st0{fill:#A2938A;}
</style>
<g>
	<g id="グループ_303" transform="translate(19.042) rotate(90)">
		<path id="パス_3198" class="st0" d="M18.6,4.7l-6.4,2.5v7.4c1.6,0.7,4.8,2,6.4,2.6V19c-3.2-1.4-12.4-5.4-18-7.7L0,8.9l18.6-8.2
			V4.7z M3,10.9l8.2,3.3V7.6L3,10.9z"/>
		<path id="パス_3199" class="st0" d="M17.7-15.7c0.8,1.8,1.3,3.8,1.3,5.7c0,6.3-2.6,10.6-9.4,10.6c-6.5,0-9.5-5.1-9.5-10.1
			c0-2,0.4-4,1.1-5.9l1.9,0.5c-1.4,1.4-2.1,3.3-2,5.3c0,3.6,2,6.6,7.6,6.6c6.5,0,9.2-2.7,9.2-7c0-2.1-0.9-4.1-2.3-5.6L17.7-15.7z"/>
		<path id="パス_3200" class="st0" d="M18.6-29.6H9.9v7.4h8.7v3.3h-18v-3.3h8.1v-7.4H0.6v-3.3h18V-29.6z"/>
		
			<rect id="長方形_109" x="7.9" y="-47.8" transform="matrix(2.535182e-06 1 -1 2.535182e-06 -29.1255 -48.3384)" class="st0" width="3.4" height="18"/>
		<path id="パス_3201" class="st0" d="M18.6-44.5h-18c0,0,0-6.6-0.1-10.4h1.6c-0.3,2.3-0.4,4.7-0.4,7h6.6c0-1.7-0.1-3.9-0.2-5.5
			h1.7c-0.1,1.6-0.2,3.9-0.2,5.5h7.8c0-2.7-0.2-5.4-0.5-8h1.8L18.6-44.5z"/>
		<path id="パス_3202" class="st0" d="M18.6-64l-18,7.6v-4l13.9-5.3C11-67,4.4-69.3,0.6-70.5v-1.7c3.8,1.4,12.9,4.6,18,6.5
			L18.6-64z"/>
		<path id="パス_3203" class="st0" d="M18.6-74.3h-18c0,0,0-6.6-0.1-10.4h1.6c-0.3,2.3-0.4,4.7-0.4,7h6.6c0-1.7-0.1-3.9-0.2-5.5
			h1.7c-0.1,1.6-0.2,3.9-0.2,5.5h7.8c0-2.7-0.2-5.4-0.5-8h1.8L18.6-74.3z"/>
		<path id="パス_3204" class="st0" d="M18.6-103.4H3.9c2.5,1,10.7,4.6,14.5,6.1v1.5c-3.5,1.3-11.9,4.5-15.2,5.9c0,0,3.1,0,5.9,0h2
			c2.9,0,6-0.1,7.4-0.3v1.8c-1.5-0.1-4.5-0.2-7.4-0.2c-1.4,0-3,0-4.6,0c-3.1,0-6,0-6,0L0.2-92c3.3-1.2,11.7-4.3,14.6-5.4
			c-2.8-1.2-11-4.6-14.1-5.8v-3.5h18V-103.4z"/>
		<path id="パス_3205" class="st0" d="M18.6-110.8h-18c0,0,0-6.6-0.1-10.4h1.6c-0.3,2.3-0.4,4.7-0.4,7h6.6c0-1.7-0.1-3.9-0.2-5.5
			h1.7c-0.1,1.6-0.2,3.9-0.2,5.5h7.8c0-2.7-0.2-5.4-0.5-8h1.8L18.6-110.8z"/>
		<path id="パス_3206" class="st0" d="M18.6-137.6c-3.1,2.2-13.2,9.4-15.7,11.3h8.3c2.9,0,6-0.1,7.4-0.2v1.8
			c-1.5-0.1-4.5-0.2-7.4-0.2c-1.4,0-3,0-4.6,0c-3.1,0-6.1,0-6.1,0l-0.4-3.2c2.8-2,10.7-7.8,13.2-9.5H8c-2.9,0-6,0.1-7.4,0.2v-1.8
			c1.5,0.1,4.5,0.2,7.4,0.2h10.6V-137.6z"/>
		<path id="パス_3207" class="st0" d="M18.6-147.3H1.8c0,1.8,0.1,3.5,0.4,5.3H0.5c0.1-1.6,0.1-4.3,0.1-7c0-2.4,0-4.5-0.1-6.9h1.6
			c-0.3,1.7-0.4,3.5-0.4,5.3h16.8V-147.3z"/>
	</g>
</g>
</svg>
